<svg width="276" height="276" viewBox="0 0 276 276" fill="none" xmlns="http://www.w3.org/2000/svg">
<g clip-path="url(#clip0_227_8706)">
<path d="M156.531 110.313C156.706 109.507 156.689 108.671 156.481 107.873C156.272 107.075 155.879 106.337 155.333 105.719C151.687 101.601 143.027 94.197 143.027 94.197L144.362 90.8899L144.726 90.792C147.27 90.0891 149.449 88.4375 150.813 86.1771L151.011 85.8473L151.283 85.957C152.018 86.253 152.824 86.3236 153.598 86.1597C154.373 85.9958 155.081 85.605 155.633 85.037C156.204 84.5734 156.648 83.9723 156.923 83.2901C157.113 82.8205 157.211 82.3191 157.213 81.8127C157.319 81.3004 157.226 80.7673 156.953 80.321L156.255 79.3869L156.89 78.4766C161.496 71.8732 158.504 63.0434 151.007 59.8077C150.824 59.7299 150.642 59.6546 150.46 59.5852C150.281 59.5088 150.098 59.4369 149.912 59.3661C142.27 56.4918 133.987 60.7713 132.719 68.7221L132.544 69.8177L131.394 70.0059C130.887 70.1378 130.45 70.457 130.171 70.8989C129.821 71.2651 129.544 71.6944 129.354 72.164C129.079 72.8461 128.981 73.587 129.071 74.3171C129.073 75.1089 129.312 75.8819 129.756 76.5375C130.2 77.1931 130.829 77.7017 131.563 77.9984L131.835 78.108L131.749 78.4832C131.162 81.0572 131.584 83.7583 132.928 86.0307L133.122 86.3536L131.787 89.6607C131.787 89.6607 120.415 88.98 114.932 89.414C114.109 89.4795 113.314 89.7378 112.61 90.1679C111.906 90.598 111.313 91.1879 110.88 91.8897C108.695 95.737 106.735 99.7079 105.01 103.782L152.502 122.949C154.088 118.818 155.434 114.6 156.531 110.313Z" fill="url(#paint0_linear_227_8706)"/>
<path d="M169.686 204.221L155.629 239.052C155.552 239.241 155.403 239.392 155.215 239.472C155.027 239.552 154.815 239.554 154.625 239.478L24.3907 186.92C24.2013 186.842 24.0501 186.694 23.9701 186.505C23.8902 186.317 23.8879 186.105 23.9639 185.915L89.2293 24.1958C89.3064 24.0064 89.4553 23.8552 89.6435 23.7752C89.8317 23.6952 90.0439 23.693 90.2337 23.769L220.468 76.3279C220.657 76.4049 220.808 76.5538 220.888 76.742C220.968 76.9302 220.971 77.1424 220.895 77.3322L200.657 127.48L219.271 116.015C219.692 115.757 220.12 115.509 220.559 115.279L233.775 82.5303C235.225 78.9241 235.186 74.8898 233.666 71.3125C232.146 67.7351 229.269 64.9067 225.666 63.4475L95.4318 10.8887C91.8255 9.43848 87.7913 9.47777 84.214 10.9979C80.6366 12.5181 77.8082 15.395 76.349 18.9976L11.0836 180.717C9.6334 184.323 9.6727 188.358 11.1928 191.935C12.713 195.512 15.5899 198.341 19.1925 199.8L149.427 252.359C153.033 253.809 157.067 253.77 160.645 252.249C164.222 250.729 167.05 247.852 168.51 244.25L189.428 192.417L172.286 202.974C171.464 203.477 170.593 203.895 169.686 204.221Z" fill="url(#paint1_linear_227_8706)"/>
<path d="M123.268 185.218L89.2783 171.5C88.5192 171.194 87.6694 171.202 86.916 171.522C86.1626 171.842 85.5672 172.448 85.2609 173.208C84.9545 173.967 84.9623 174.816 85.2824 175.57C85.6026 176.323 86.2089 176.919 86.968 177.225L120.958 190.942C121.717 191.249 122.567 191.241 123.32 190.921C124.073 190.601 124.669 189.994 124.975 189.235C125.282 188.476 125.274 187.626 124.954 186.873C124.633 186.119 124.027 185.524 123.268 185.218Z" fill="url(#paint2_linear_227_8706)"/>
<path d="M131.363 165.182L65.1728 138.469C64.4137 138.163 63.564 138.17 62.8106 138.491C62.0571 138.811 61.4618 139.417 61.1554 140.176C60.849 140.935 60.8568 141.785 61.1769 142.538C61.4971 143.292 62.1034 143.887 62.8626 144.194L129.053 170.906C129.812 171.213 130.662 171.205 131.415 170.885C132.169 170.564 132.764 169.958 133.07 169.199C133.377 168.44 133.369 167.59 133.049 166.837C132.729 166.083 132.122 165.488 131.363 165.182L131.363 165.182Z" fill="url(#paint3_linear_227_8706)"/>
<path d="M139.449 145.146L73.2588 118.433C72.4996 118.127 71.6499 118.134 70.8965 118.454C70.1431 118.775 69.5477 119.381 69.2413 120.14C68.935 120.899 68.9427 121.749 69.2629 122.502C69.583 123.256 70.1894 123.851 70.9485 124.158L137.139 150.87C137.898 151.177 138.748 151.169 139.501 150.849C140.255 150.528 140.85 149.922 141.156 149.163C141.463 148.404 141.455 147.554 141.135 146.801C140.815 146.047 140.208 145.452 139.449 145.146L139.449 145.146Z" fill="url(#paint4_linear_227_8706)"/>
<path d="M243.808 128.422C242.825 126.824 241.536 125.435 240.016 124.335C238.496 123.235 236.774 122.446 234.949 122.012C233.123 121.577 231.23 121.507 229.378 121.805C227.525 122.102 225.75 122.762 224.152 123.746L151.258 168.633C150.859 168.879 150.514 169.205 150.246 169.59L134.769 191.901C134.392 192.444 134.182 193.086 134.164 193.747C134.146 194.408 134.321 195.06 134.668 195.623C135.015 196.186 135.518 196.636 136.117 196.917C136.715 197.199 137.383 197.3 138.038 197.207L164.93 193.433C165.394 193.367 165.84 193.207 166.24 192.962L239.134 148.074C242.356 146.085 244.658 142.899 245.534 139.214C246.41 135.53 245.79 131.649 243.808 128.422ZM147.134 189.063L146.338 187.159L152.872 177.739L158.832 187.418L147.134 189.063Z" fill="url(#paint5_linear_227_8706)"/>
</g>
<defs>
<linearGradient id="paint0_linear_227_8706" x1="150.461" y1="59.5833" x2="128.756" y2="113.366" gradientUnits="userSpaceOnUse">
<stop stop-color="#3518EF"/>
<stop offset="1" stop-color="#928EAE" stop-opacity="0.35"/>
</linearGradient>
<linearGradient id="paint1_linear_227_8706" x1="160.549" y1="37.1681" x2="84.3096" y2="226.079" gradientUnits="userSpaceOnUse">
<stop stop-color="#3518EF"/>
<stop offset="1" stop-color="#928EAE" stop-opacity="0.35"/>
</linearGradient>
<linearGradient id="paint2_linear_227_8706" x1="106.273" y1="178.359" x2="103.963" y2="184.084" gradientUnits="userSpaceOnUse">
<stop stop-color="#3E23F2"/>
<stop offset="1" stop-color="#A99CFF" stop-opacity="0.35"/>
</linearGradient>
<linearGradient id="paint3_linear_227_8706" x1="98.2681" y1="151.825" x2="95.9578" y2="157.55" gradientUnits="userSpaceOnUse">
<stop stop-color="#3518EF"/>
<stop offset="1" stop-color="#928EAE" stop-opacity="0.35"/>
</linearGradient>
<linearGradient id="paint4_linear_227_8706" x1="106.354" y1="131.789" x2="104.044" y2="137.514" gradientUnits="userSpaceOnUse">
<stop stop-color="#3518EF"/>
<stop offset="1" stop-color="#928EAE" stop-opacity="0.35"/>
</linearGradient>
<linearGradient id="paint5_linear_227_8706" x1="211.634" y1="112.429" x2="171.734" y2="211.297" gradientUnits="userSpaceOnUse">
<stop stop-color="#3518EF"/>
<stop offset="1" stop-color="#928EAE" stop-opacity="0.35"/>
</linearGradient>
<clipPath id="clip0_227_8706">
<rect width="211.813" height="211.813" fill="white" transform="translate(79.2695) rotate(21.9776)"/>
</clipPath>
</defs>
</svg>
