<svg width="225" height="232" viewBox="0 0 225 232" fill="none" xmlns="http://www.w3.org/2000/svg">
<path d="M219.498 71.6898L100.884 3.20794C96.6899 0.786266 91.7052 0.130022 87.0269 1.38357C82.3486 2.63712 78.3599 5.69777 75.9382 9.89223L62.2418 33.615L46.4266 24.4841L37.2957 40.2993L53.1109 49.4302L43.98 65.2455L28.1648 56.1145L19.0339 71.9298L34.8491 81.0607L25.7182 96.8759L9.90296 87.745L0.772049 103.56L16.5873 112.691L2.89088 136.414C0.469215 140.608 -0.187033 145.593 1.06651 150.271C2.32007 154.95 5.38073 158.938 9.57518 161.36L128.189 229.842C130.286 231.053 132.779 231.381 135.118 230.754C137.457 230.127 139.451 228.597 140.662 226.5L222.841 84.1629C224.051 82.0656 224.379 79.5733 223.753 77.2342C223.126 74.895 221.596 72.9006 219.498 71.6898ZM142.546 58.881C155.577 66.4049 160.101 83.2606 152.572 96.3002C148.92 102.572 142.937 107.147 135.927 109.026C128.917 110.906 121.448 109.938 115.148 106.335C102.125 98.8153 97.6027 81.9392 105.127 68.9075C112.655 55.8678 129.522 51.3617 142.546 58.881ZM130.636 189.081L35.7446 134.295L39.1687 128.364C49.2995 110.817 81.1033 105.13 107.159 120.173C133.214 135.216 144.191 165.603 134.06 183.15L130.636 189.081Z" fill="url(#paint0_linear_266_4379)"/>
<defs>
<linearGradient id="paint0_linear_266_4379" x1="148.33" y1="30.6007" x2="57.0208" y2="188.753" gradientUnits="userSpaceOnUse">
<stop stop-color="#3518EF"/>
<stop offset="1" stop-color="#928EAE" stop-opacity="0.35"/>
</linearGradient>
</defs>
</svg>
