<svg width="289" height="289" viewBox="0 0 289 289" fill="none" xmlns="http://www.w3.org/2000/svg">
<g clip-path="url(#clip0_228_3880)">
<path d="M101.8 57.3839L101.8 57.3841C100.835 60.182 100.874 63.2285 101.91 66.0009C102.946 68.7733 104.914 71.0988 107.477 72.5786C110.041 74.0584 113.039 74.6002 115.958 74.1111C118.876 73.622 121.534 72.1324 123.475 69.898L123.475 69.8978L130.448 61.8757C131.619 60.358 132.453 58.6078 132.893 56.742C133.335 54.8716 133.371 52.9283 133 51.0427C132.629 49.1571 131.858 47.3727 130.74 45.8095C129.623 44.2462 128.183 42.9402 126.519 41.9791L101.8 57.3839ZM101.8 57.3839L105.261 47.3341C105.99 45.561 107.089 43.9639 108.484 42.6495C109.883 41.3318 111.548 40.3287 113.367 39.7074C115.185 39.0862 117.116 38.8613 119.029 39.0478C120.942 39.2342 122.792 39.8278 124.457 40.7885C124.457 40.7885 124.457 40.7885 124.457 40.7885M101.8 57.3839L124.457 40.7885M124.457 40.7885L126.519 41.9791L124.457 40.7885Z" fill="url(#paint0_linear_228_3880)" stroke="url(#paint1_linear_228_3880)"/>
<path d="M95.9216 152.559C95.9655 152.683 95.981 152.816 95.9671 152.947C95.9531 153.078 95.91 153.204 95.841 153.316C95.772 153.428 95.6788 153.523 95.5682 153.595C95.4576 153.666 95.3324 153.712 95.2018 153.729C93.6502 153.92 92.0804 153.566 90.7622 152.725C89.7779 152.106 88.981 151.23 88.4573 150.192C82.2474 160.281 79.8398 163.813 73.5762 173.968C71.3956 177.55 68.0114 183.051 65.158 187.688C63.3979 190.553 60.5943 192.623 57.3379 193.461C54.0816 194.299 50.627 193.841 47.7022 192.182L40.7128 188.211L33.779 184.143C30.8818 182.438 28.7589 179.676 27.857 176.437C26.9551 173.199 27.3446 169.736 28.9433 166.779C31.5322 161.99 34.6158 156.315 36.6161 152.629C42.2904 142.134 44.133 138.276 49.7657 127.853C48.6046 127.921 47.4472 127.669 46.4196 127.124C44.8962 126.332 43.7337 124.987 43.1706 123.365C42.6074 121.743 42.6865 119.968 43.3914 118.402C43.4361 118.269 43.4938 118.142 43.5637 118.02L43.6123 117.936C44.6698 115.966 45.6722 113.98 46.6816 111.981C47.6721 109.988 48.6505 107.988 49.6118 105.962C50.5972 103.95 51.5155 101.915 52.4699 99.901L55.2558 93.7986C55.3408 93.6235 55.4382 93.4548 55.5473 93.2936L56.1433 92.4834L59.7507 87.5124C60.9274 85.8353 62.1283 84.1719 63.286 82.4997C64.4627 80.8226 65.6104 79.1125 66.77 77.4094C67.8987 75.7045 69.0342 73.9875 70.1167 72.2237C70.9606 70.86 72.1132 69.7138 73.4815 68.8775C74.8499 68.0413 76.3957 67.5384 77.9941 67.4095C78.1783 67.3899 78.3637 67.3844 78.5487 67.393C80.1846 67.3474 81.804 67.7297 83.2468 68.5022C85.4023 69.378 87.556 70.2847 89.7148 71.2105C91.0263 71.7434 92.3239 72.3002 93.6096 72.8501C94.2245 73.0701 94.7559 73.4756 95.1305 74.0106C95.5051 74.5456 95.7043 75.1837 95.7006 75.8368C95.8569 79.0371 96.0802 82.2601 96.2915 85.4761C96.4107 87.3243 96.5488 89.1676 96.6809 91.2157C96.6948 91.1916 96.7189 91.2055 96.7258 91.1935C96.7309 91.2124 96.7429 91.2194 96.741 91.2504C98.5808 90.3407 100.234 89.5318 101.906 88.7178C104.797 87.2928 107.688 85.8677 110.55 84.4099C111.111 84.0791 111.761 83.9313 112.409 83.987C113.058 84.0427 113.673 84.299 114.17 84.7205C115.301 85.5659 116.432 86.4113 117.549 87.2807C119.418 88.6804 121.292 90.0992 123.129 91.528C123.917 92.0169 124.627 92.6215 125.235 93.3214L106.443 107.433L105.623 108.049C102.768 110.207 100.84 113.368 100.228 116.893L95.2357 145.449C94.8316 147.838 95.0682 150.291 95.9216 152.559V152.559Z" fill="url(#paint2_linear_228_3880)"/>
<path d="M189.904 67.3344L189.904 67.3345C191.667 68.3522 193.193 69.7357 194.377 71.392C195.561 73.0482 196.377 74.9388 196.77 76.9366C197.163 78.9345 197.124 80.9933 196.655 82.9748C196.188 84.9517 195.303 86.8059 194.061 88.4132L186.7 96.892C186.7 96.8921 186.7 96.8922 186.7 96.8922C184.642 99.2601 181.824 100.838 178.73 101.356C175.636 101.874 172.458 101.3 169.741 99.7309C167.024 98.1622 164.937 95.6972 163.839 92.7585C162.74 89.8199 162.698 86.5905 163.72 83.6242L167.382 73.0102C168.153 71.1307 169.316 69.4376 170.795 68.044C172.276 66.6473 174.04 65.5839 175.966 64.9253C177.893 64.2667 179.938 64.0282 181.965 64.2258C183.991 64.4234 185.952 65.0526 187.715 66.0709L187.715 66.071L189.904 67.3344Z" fill="url(#paint3_linear_228_3880)" stroke="url(#paint4_linear_228_3880)"/>
<path d="M187.699 158.562L187.814 157.587L191.171 129.947C191.219 129.529 191.242 129.109 191.24 128.688C191.242 126.226 190.348 123.846 188.725 121.994C188.718 121.991 188.712 121.987 188.707 121.981C188.702 121.975 188.698 121.968 188.696 121.961C188.124 121.26 187.471 120.63 186.75 120.084C184.658 118.459 182.528 116.845 180.403 115.249C179.214 114.338 178.017 113.439 176.833 112.547C176.308 112.102 175.657 111.831 174.972 111.771C174.286 111.711 173.598 111.865 173.003 112.212C169.974 113.765 166.918 115.255 163.859 116.776C162.097 117.634 160.335 118.492 158.399 119.458C158.404 119.454 158.407 119.448 158.41 119.442C158.412 119.435 158.413 119.429 158.412 119.422C158.411 119.415 158.409 119.409 158.405 119.403C158.401 119.397 158.396 119.393 158.391 119.389C158.385 119.386 158.378 119.384 158.371 119.384C158.365 119.383 158.358 119.384 158.352 119.387C158.346 119.39 158.34 119.394 158.336 119.399C158.331 119.404 158.328 119.41 158.327 119.417C158.195 117.257 158.057 115.302 157.92 113.346C157.708 109.938 157.47 106.546 157.301 103.146C157.303 102.457 157.093 101.785 156.698 101.221C156.303 100.657 155.743 100.229 155.095 99.9965C153.73 99.417 152.353 98.8305 150.97 98.2561C148.525 97.2137 146.062 96.1764 143.609 95.177C142.776 94.8254 141.904 94.5746 141.011 94.4301C141.003 94.4319 140.996 94.4321 140.988 94.4306C140.981 94.429 140.974 94.4259 140.968 94.4213C138.552 93.9418 136.044 94.3573 133.913 95.5902C133.547 95.799 133.195 96.0291 132.857 96.2795L110.599 113.007L109.811 113.594C108.365 114.686 107.385 116.285 107.067 118.069L106.514 121.277L102.082 146.612C101.79 148.331 102.155 150.097 103.106 151.558C104.057 153.019 105.523 154.068 107.213 154.496C108.092 154.718 109.006 154.765 109.902 154.633C110.799 154.501 111.661 154.194 112.439 153.729C113.217 153.263 113.895 152.649 114.435 151.922C114.976 151.194 115.367 150.367 115.587 149.488L117.474 142L121.723 125.088L128.533 121.485C128.321 121.907 128.123 122.306 127.894 122.703C127.18 124.022 126.485 125.337 125.772 126.656C125.114 127.879 124.444 129.095 123.778 130.331L118.768 150.282C118.327 152.026 117.433 153.622 116.178 154.91C114.922 156.198 113.348 157.131 111.616 157.616C110.711 157.862 109.777 157.986 108.839 157.984C102.801 169.135 100.867 173.18 94.8416 184.338C92.7164 188.241 89.4574 194.247 86.7278 199.308C85.0364 202.434 84.624 206.094 85.5776 209.519C86.5311 212.943 88.7761 215.863 91.8398 217.665L99.1704 221.962L106.557 226.162C109.649 227.914 113.301 228.398 116.743 227.512C120.185 226.626 123.149 224.438 125.011 221.41C128.029 216.516 131.6 210.691 133.918 206.899C140.568 196.102 143.104 192.404 149.743 181.6C149.272 180.788 148.912 179.917 148.673 179.01C148.227 177.268 148.248 175.439 148.735 173.707C149.223 171.976 150.158 170.404 151.448 169.15L166.221 154.835C166.958 153.641 167.677 152.453 168.407 151.271C169.193 149.994 169.984 148.735 170.769 147.457C170.998 147.06 171.245 146.69 171.505 146.295L171.789 153.993L159.267 166.13L153.726 171.507C152.445 172.753 151.696 174.447 151.637 176.233C151.578 178.019 152.213 179.758 153.41 181.086C154.606 182.413 156.27 183.226 158.052 183.352C159.835 183.479 161.597 182.91 162.969 181.765L182.695 165.26L185.196 163.177C186.582 162.009 187.476 160.361 187.699 158.562Z" fill="url(#paint5_linear_228_3880)"/>
<path d="M240.385 137.397L240.385 137.397L247.358 129.374C248.529 127.857 249.363 126.107 249.804 124.241C250.245 122.37 250.282 120.427 249.91 118.541C249.539 116.656 248.768 114.871 247.651 113.308C246.533 111.745 245.093 110.439 243.429 109.478L240.385 137.397ZM240.385 137.397C238.444 139.631 235.787 141.121 232.868 141.61C229.949 142.099 226.951 141.557 224.388 140.077C221.825 138.598 219.856 136.272 218.82 133.5C217.785 130.727 217.746 127.681 218.71 124.883L218.711 124.883M240.385 137.397L218.711 124.883M218.711 124.883L222.171 114.833M218.711 124.883L222.171 114.833M222.171 114.833C222.9 113.06 223.999 111.463 225.395 110.148C226.794 108.831 228.458 107.827 230.277 107.206C232.096 106.585 234.026 106.36 235.939 106.546C237.852 106.733 239.702 107.326 241.367 108.287C241.367 108.287 241.367 108.287 241.367 108.287L243.429 109.478L222.171 114.833Z" fill="url(#paint6_linear_228_3880)" stroke="url(#paint7_linear_228_3880)"/>
<path d="M160.901 190.074C160.771 190.098 160.649 190.151 160.542 190.229C160.436 190.306 160.348 190.407 160.286 190.523C160.223 190.638 160.187 190.767 160.181 190.898C160.174 191.03 160.197 191.161 160.248 191.283C160.857 192.722 161.95 193.904 163.337 194.626C164.365 195.168 165.522 195.421 166.683 195.355C161.05 205.778 159.195 209.629 153.533 220.13C151.521 223.81 148.449 229.491 145.86 234.281C144.259 237.238 143.868 240.7 144.771 243.94C145.673 247.179 147.797 249.941 150.696 251.645L157.63 255.712L164.619 259.684C167.545 261.34 170.998 261.797 174.254 260.959C177.51 260.121 180.313 258.052 182.075 255.189C184.928 250.552 188.301 245.045 190.493 241.469C196.745 231.308 199.165 227.783 205.374 217.694C205.896 218.733 206.694 219.609 207.679 220.227C209.127 221.15 210.873 221.485 212.559 221.161C214.245 220.838 215.743 219.882 216.747 218.488C216.839 218.383 216.921 218.269 216.991 218.148L217.04 218.064C218.217 216.163 219.436 214.302 220.662 212.429C221.893 210.574 223.136 208.727 224.41 206.881C225.66 205.022 226.963 203.209 228.23 201.376L232.122 195.912C232.231 195.75 232.328 195.582 232.413 195.407L232.817 194.485L235.318 188.876C236.182 187.018 237.023 185.147 237.892 183.308C238.756 181.45 239.663 179.601 240.558 177.745C241.47 175.916 242.39 174.074 243.376 172.254C244.135 170.842 244.551 169.27 244.591 167.667C244.631 166.064 244.294 164.474 243.606 163.025C243.531 162.856 243.443 162.692 243.343 162.537C242.565 161.097 241.424 159.886 240.034 159.023C238.197 157.594 236.335 156.182 234.454 154.775C233.337 153.906 232.206 153.061 231.087 152.222C230.589 151.8 229.972 151.542 229.321 151.485C228.671 151.428 228.019 151.575 227.455 151.905C224.605 153.369 221.702 154.787 218.811 156.212C217.151 157.033 215.486 157.835 213.646 158.745C213.66 158.721 213.636 158.707 213.643 158.695C213.624 158.7 213.612 158.693 213.586 158.71C213.454 156.662 213.328 154.826 213.197 152.971C212.985 149.755 212.774 146.539 212.606 143.331C212.612 142.68 212.415 142.044 212.042 141.51C211.67 140.975 211.14 140.571 210.527 140.352C209.229 139.795 207.931 139.238 206.62 138.705C204.473 137.786 202.307 136.873 200.152 135.997C199.334 135.559 198.456 135.246 197.545 135.069L194.721 158.399L194.597 159.418C194.156 162.969 192.382 166.22 189.635 168.512L167.401 187.113C165.535 188.658 163.291 189.68 160.901 190.074V190.074Z" fill="url(#paint8_linear_228_3880)"/>
</g>
<defs>
<linearGradient id="paint0_linear_228_3880" x1="125.738" y1="40.9508" x2="107.227" y2="73.0117" gradientUnits="userSpaceOnUse">
<stop stop-color="#3518EF"/>
<stop offset="1" stop-color="#928EAE" stop-opacity="0.35"/>
</linearGradient>
<linearGradient id="paint1_linear_228_3880" x1="125.738" y1="40.9508" x2="107.227" y2="73.0117" gradientUnits="userSpaceOnUse">
<stop stop-color="#3518EF"/>
<stop offset="1" stop-color="#928EAE" stop-opacity="0.35"/>
</linearGradient>
<linearGradient id="paint2_linear_228_3880" x1="102.042" y1="77.6595" x2="38.8393" y2="187.129" gradientUnits="userSpaceOnUse">
<stop stop-color="#3518EF"/>
<stop offset="1" stop-color="#928EAE" stop-opacity="0.35"/>
</linearGradient>
<linearGradient id="paint3_linear_228_3880" x1="189.06" y1="66.2697" x2="169.491" y2="100.164" gradientUnits="userSpaceOnUse">
<stop stop-color="#3518EF"/>
<stop offset="1" stop-color="#928EAE" stop-opacity="0.35"/>
</linearGradient>
<linearGradient id="paint4_linear_228_3880" x1="189.06" y1="66.2697" x2="169.491" y2="100.164" gradientUnits="userSpaceOnUse">
<stop stop-color="#3518EF"/>
<stop offset="1" stop-color="#928EAE" stop-opacity="0.35"/>
</linearGradient>
<linearGradient id="paint5_linear_228_3880" x1="165.991" y1="106.226" x2="99.1705" y2="221.962" gradientUnits="userSpaceOnUse">
<stop stop-color="#3518EF"/>
<stop offset="1" stop-color="#928EAE" stop-opacity="0.35"/>
</linearGradient>
<linearGradient id="paint6_linear_228_3880" x1="242.648" y1="108.45" x2="224.138" y2="140.51" gradientUnits="userSpaceOnUse">
<stop stop-color="#3518EF"/>
<stop offset="1" stop-color="#928EAE" stop-opacity="0.35"/>
</linearGradient>
<linearGradient id="paint7_linear_228_3880" x1="242.648" y1="108.45" x2="224.138" y2="140.51" gradientUnits="userSpaceOnUse">
<stop stop-color="#3518EF"/>
<stop offset="1" stop-color="#928EAE" stop-opacity="0.35"/>
</linearGradient>
<linearGradient id="paint8_linear_228_3880" x1="222.706" y1="147.324" x2="159.503" y2="256.794" gradientUnits="userSpaceOnUse">
<stop stop-color="#3518EF"/>
<stop offset="1" stop-color="#928EAE" stop-opacity="0.35"/>
</linearGradient>
<clipPath id="clip0_228_3880">
<rect width="211" height="211" fill="white" transform="translate(105.5) rotate(30)"/>
</clipPath>
</defs>
</svg>
