<svg width="289" height="289" viewBox="0 0 289 289" fill="none" xmlns="http://www.w3.org/2000/svg">
<g clip-path="url(#clip0_228_3874)">
<path d="M208.151 183.478L147.057 148.205L152.756 138.336C153.365 137.281 153.53 136.027 153.214 134.85C152.899 133.674 152.129 132.67 151.074 132.061C150.019 131.452 148.766 131.287 147.589 131.603C146.412 131.918 145.409 132.688 144.8 133.743L139.102 143.612L77.821 108.232C76.7657 107.624 75.5125 107.46 74.3362 107.775C73.1599 108.09 72.1567 108.859 71.5466 109.913L63.5518 123.76C62.9427 124.815 62.7776 126.069 63.0929 127.246C63.4082 128.422 64.178 129.426 65.233 130.035C66.288 130.644 67.5418 130.809 68.7185 130.493C69.8952 130.178 70.8984 129.408 71.5075 128.353L77.2056 118.484L134.546 151.59L128.848 161.459C128.239 162.514 128.074 163.768 128.389 164.944C128.704 166.121 129.474 167.124 130.529 167.733C131.584 168.343 132.838 168.508 134.015 168.192C135.191 167.877 136.195 167.107 136.804 166.052L142.502 156.183L199.58 189.137L193.881 199.006C193.272 200.061 193.107 201.315 193.423 202.492C193.738 203.668 194.508 204.671 195.563 205.281C196.618 205.89 197.871 206.055 199.048 205.739C200.225 205.424 201.228 204.654 201.837 203.599L209.832 189.752C210.44 188.697 210.604 187.443 210.289 186.267C209.974 185.091 209.205 184.088 208.151 183.478Z" fill="url(#paint0_linear_228_3874)"/>
<path d="M192.504 123.025C192.869 122.036 192.997 120.974 192.875 119.927C192.754 118.879 192.388 117.875 191.806 116.995C187.926 111.131 178.284 100.214 178.284 100.214L180.564 96.2651L181.042 96.206C184.389 95.7702 187.442 94.0681 189.572 91.45L189.882 91.0678L190.206 91.2552C191.083 91.7609 192.091 91.9941 193.101 91.9249C194.111 91.8557 195.077 91.4873 195.877 90.8666C196.682 90.3817 197.352 89.7 197.822 88.8855C198.145 88.3248 198.36 87.7077 198.453 87.067C198.678 86.4373 198.655 85.7456 198.389 85.132L197.673 83.8251L198.638 82.7859C205.648 75.2483 203.435 63.5363 194.522 58.1025C194.304 57.9714 194.088 57.8437 193.87 57.7233C193.656 57.5946 193.437 57.471 193.215 57.3483C184.053 52.3458 172.803 56.2856 169.78 66.1248L169.363 67.4806L167.873 67.5135C167.209 67.5902 166.598 67.9163 166.166 68.4259C165.657 68.827 165.23 69.321 164.906 69.8818C164.436 70.696 164.18 71.6165 164.163 72.5567C164.025 73.5596 164.19 74.5807 164.635 75.4899C165.08 76.3992 165.785 77.1552 166.662 77.6617L166.986 77.8491L166.81 78.3086C165.608 81.4624 165.66 84.9572 166.956 88.0736L167.144 88.5171L164.864 92.4656C164.864 92.4656 150.589 89.5748 143.57 89.1459C142.518 89.0821 141.465 89.2672 140.497 89.6861C139.529 90.105 138.673 90.7459 137.999 91.5571C134.547 96.0377 131.357 100.715 128.446 105.565L185.149 138.302C187.894 133.357 190.35 128.256 192.504 123.025Z" fill="url(#paint1_linear_228_3874)"/>
<path d="M59.1809 193.568C59.4922 192.725 59.6007 191.821 59.4975 190.928C59.3943 190.036 59.0824 189.18 58.5869 188.431C55.281 183.436 47.0676 174.135 47.0676 174.135L49.0096 170.771L49.4167 170.721C52.268 170.35 54.8685 168.9 56.6831 166.67L56.9472 166.344L57.2236 166.504C57.9706 166.934 58.829 167.133 59.6893 167.074C60.5497 167.015 61.3729 166.701 62.0542 166.173C62.7405 165.76 63.3107 165.179 63.7111 164.485C63.9869 164.007 64.1694 163.482 64.2488 162.936C64.4403 162.399 64.421 161.81 64.1945 161.287L63.5841 160.174L64.4068 159.289C70.3779 152.868 68.493 142.89 60.8997 138.261C60.7145 138.15 60.5301 138.041 60.3443 137.938C60.1627 137.829 59.9762 137.723 59.7868 137.619C51.9814 133.357 42.3985 136.714 39.8231 145.095L39.4678 146.25L38.1984 146.279C37.6325 146.344 37.1125 146.622 36.7437 147.056C36.3108 147.397 35.9467 147.818 35.671 148.296C35.2703 148.99 35.0524 149.774 35.0378 150.575C34.9206 151.429 35.0604 152.299 35.4395 153.073C35.8186 153.848 36.4198 154.492 37.1664 154.924L37.4429 155.083L37.293 155.475C36.2688 158.161 36.3133 161.138 37.4174 163.793L37.5774 164.171L35.6354 167.535C35.6354 167.535 23.4742 165.072 17.4951 164.707C16.5984 164.652 15.7014 164.81 14.8769 165.167C14.0524 165.524 13.3236 166.07 12.7494 166.761C9.80815 170.578 7.09089 174.562 4.61132 178.694L52.9155 206.582C55.254 202.369 57.3459 198.024 59.1809 193.568Z" fill="url(#paint2_linear_228_3874)"/>
<path d="M124.591 231.332C124.902 230.489 125.011 229.585 124.908 228.692C124.804 227.8 124.493 226.944 123.997 226.195C120.691 221.2 112.478 211.899 112.478 211.899L114.42 208.535L114.827 208.485C117.678 208.114 120.279 206.664 122.093 204.433L122.357 204.108L122.634 204.267C123.381 204.698 124.239 204.897 125.099 204.838C125.96 204.779 126.783 204.465 127.464 203.936C128.151 203.523 128.721 202.943 129.121 202.249C129.397 201.771 129.58 201.245 129.659 200.7C129.851 200.163 129.831 199.574 129.605 199.051L128.994 197.938L129.817 197.053C135.788 190.631 133.903 180.654 126.31 176.025C126.125 175.914 125.94 175.805 125.754 175.702C125.573 175.593 125.386 175.487 125.197 175.383C117.392 171.121 107.809 174.477 105.233 182.859L104.878 184.014L103.609 184.042C103.043 184.108 102.523 184.385 102.154 184.82C101.721 185.161 101.357 185.582 101.081 186.06C100.68 186.753 100.463 187.538 100.448 188.339C100.331 189.193 100.471 190.063 100.85 190.837C101.229 191.612 101.83 192.256 102.577 192.687L102.853 192.847L102.703 193.238C101.679 195.925 101.723 198.902 102.828 201.557L102.988 201.935L101.046 205.299C101.046 205.299 88.8844 202.836 82.9053 202.471C82.0085 202.416 81.1116 202.574 80.2871 202.931C79.4626 203.288 78.7337 203.834 78.1595 204.525C75.2183 208.342 72.5011 212.326 70.0215 216.458L118.326 244.346C120.664 240.133 122.756 235.787 124.591 231.332Z" fill="url(#paint3_linear_228_3874)"/>
<path d="M190.187 269.204C190.498 268.361 190.607 267.457 190.503 266.564C190.4 265.672 190.088 264.816 189.593 264.067C186.287 259.072 178.073 249.771 178.073 249.771L180.015 246.407L180.423 246.357C183.274 245.986 185.874 244.536 187.689 242.305L187.953 241.98L188.229 242.14C188.976 242.57 189.835 242.769 190.695 242.71C191.556 242.651 192.379 242.337 193.06 241.809C193.746 241.395 194.317 240.815 194.717 240.121C194.993 239.643 195.175 239.118 195.255 238.572C195.446 238.035 195.427 237.446 195.2 236.923L194.59 235.81L195.413 234.925C201.384 228.504 199.499 218.526 191.906 213.897C191.72 213.786 191.536 213.677 191.35 213.574C191.169 213.465 190.982 213.359 190.793 213.255C182.987 208.993 173.404 212.35 170.829 220.731L170.474 221.886L169.204 221.914C168.638 221.98 168.118 222.258 167.75 222.692C167.317 223.033 166.953 223.454 166.677 223.932C166.276 224.626 166.058 225.41 166.044 226.211C165.926 227.065 166.066 227.935 166.445 228.709C166.825 229.484 167.426 230.128 168.172 230.56L168.449 230.719L168.299 231.111C167.275 233.797 167.319 236.774 168.423 239.429L168.583 239.807L166.641 243.171C166.641 243.171 154.48 240.708 148.501 240.343C147.604 240.288 146.707 240.446 145.883 240.803C145.058 241.16 144.329 241.706 143.755 242.397C140.814 246.214 138.097 250.198 135.617 254.33L183.921 282.218C186.26 278.005 188.352 273.66 190.187 269.204Z" fill="url(#paint4_linear_228_3874)"/>
</g>
<defs>
<linearGradient id="paint0_linear_228_3874" x1="150.981" y1="132.007" x2="130.398" y2="167.658" gradientUnits="userSpaceOnUse">
<stop stop-color="#3518EF"/>
<stop offset="1" stop-color="#928EAE" stop-opacity="0.35"/>
</linearGradient>
<linearGradient id="paint1_linear_228_3874" x1="193.871" y1="57.7211" x2="156.798" y2="121.934" gradientUnits="userSpaceOnUse">
<stop stop-color="#3518EF"/>
<stop offset="1" stop-color="#928EAE" stop-opacity="0.35"/>
</linearGradient>
<linearGradient id="paint2_linear_228_3874" x1="60.3454" y1="137.936" x2="28.7634" y2="192.638" gradientUnits="userSpaceOnUse">
<stop stop-color="#3518EF"/>
<stop offset="1" stop-color="#928EAE" stop-opacity="0.35"/>
</linearGradient>
<linearGradient id="paint3_linear_228_3874" x1="125.756" y1="175.7" x2="94.1736" y2="230.402" gradientUnits="userSpaceOnUse">
<stop stop-color="#3518EF"/>
<stop offset="1" stop-color="#928EAE" stop-opacity="0.35"/>
</linearGradient>
<linearGradient id="paint4_linear_228_3874" x1="191.351" y1="213.572" x2="159.769" y2="268.274" gradientUnits="userSpaceOnUse">
<stop stop-color="#3518EF"/>
<stop offset="1" stop-color="#928EAE" stop-opacity="0.35"/>
</linearGradient>
<clipPath id="clip0_228_3874">
<rect width="211" height="211" fill="white" transform="translate(105.5) rotate(30)"/>
</clipPath>
</defs>
</svg>
